<svg xmlns="http://www.w3.org/2000/svg" width="26.095" height="26.095" viewBox="0 0 26.095 26.095">
  <path id="Icon_awesome-arrow-alt-circle-right" data-name="Icon awesome-arrow-alt-circle-right" d="M13.61.563A13.047,13.047,0,1,1,.563,13.61,13.045,13.045,0,0,1,13.61.563Zm-6.1,15.362h6.1v3.73a.632.632,0,0,0,1.079.447L20.7,14.057a.626.626,0,0,0,0-.889l-6.013-6.05a.631.631,0,0,0-1.079.447V11.3h-6.1a.633.633,0,0,0-.631.631v3.367A.633.633,0,0,0,7.507,15.925Z" transform="translate(-0.563 -0.563)" fill="#ff2d64"/>
</svg>
