<svg xmlns="http://www.w3.org/2000/svg" width="39.819" height="54" viewBox="0 0 39.819 54">
  <g id="Gruppe_2118" data-name="Gruppe 2118" transform="translate(-2566 4866.726)">
    <g id="Gruppe_2100" data-name="Gruppe 2100" transform="translate(-250 600.726)">
      <path id="Differenzmenge_213" data-name="Differenzmenge 213" d="M19.909,0C8.9,0,0,8.451,0,18.9,0,33.075,19.909,54,19.909,54S39.819,33.075,39.819,18.9C39.819,8.451,30.916,0,19.909,0Z" transform="translate(2816 -5467.451)" fill="#ff2d64"/>
    </g>
    <g id="volunteer_activism_black_24dp" transform="translate(2576.451 -4859.274)">
      <g id="Gruppe_2087" data-name="Gruppe 2087">
        <rect id="Rechteck_324" data-name="Rechteck 324" width="20" height="20" transform="translate(-0.451 -0.451)" fill="none"/>
      </g>
      <g id="Gruppe_2091" data-name="Gruppe 2091" transform="translate(0.796 1.591)">
        <g id="Gruppe_2090" data-name="Gruppe 2090">
          <g id="Gruppe_2089" data-name="Gruppe 2089">
            <g id="Gruppe_2088" data-name="Gruppe 2088">
              <path id="Pfad_604" data-name="Pfad 604" d="M14.774,10.753c2.459-2.236,4.774-4.329,4.774-6.127A2.6,2.6,0,0,0,16.923,2a2.878,2.878,0,0,0-2.148.995A2.891,2.891,0,0,0,12.626,2,2.6,2.6,0,0,0,10,4.626C10,6.424,12.316,8.517,14.774,10.753ZM12.626,3.591a1.265,1.265,0,0,1,.939.438l1.21,1.424,1.21-1.424a1.265,1.265,0,0,1,.939-.438,1.013,1.013,0,0,1,1.034,1.034c0,.891-1.623,2.522-3.183,3.971-1.56-1.448-3.183-3.087-3.183-3.971A1.013,1.013,0,0,1,12.626,3.591Z" transform="translate(-2.838 -2)" fill="#fff"/>
              <path id="Pfad_605" data-name="Pfad 605" d="M15.323,14.979H13.732a2.3,2.3,0,0,0-1.488-2.148L7.342,11H1v8.753H5.774V18.607l5.57,1.544,6.366-1.989v-.8A2.384,2.384,0,0,0,15.323,14.979ZM2.591,18.162v-5.57H4.183v5.57Zm8.729.326L5.774,16.952V12.591H7.056l4.631,1.727a.708.708,0,0,1,.454.66,17.525,17.525,0,0,1-1.83-.119l-1.894-.629-.5,1.512,1.894.629a3.966,3.966,0,0,0,1.257.207h4.257a.8.8,0,0,1,.716.446Z" transform="translate(-1 -3.838)" fill="#fff"/>
            </g>
          </g>
        </g>
      </g>
    </g>
  </g>
</svg>
