<svg id="Marker-Web" xmlns="http://www.w3.org/2000/svg" width="24" height="32.548" viewBox="0 0 24 32.548">
  <path id="Ausschluss_1" data-name="Ausschluss 1" d="M-4094,5850.548h0a75.63,75.63,0,0,1-6-7.374,46.03,46.03,0,0,1-4.125-6.872,16.758,16.758,0,0,1-1.875-6.91,11.031,11.031,0,0,1,3.513-8.057A12.251,12.251,0,0,1-4094,5818a12.254,12.254,0,0,1,8.488,3.334,11.032,11.032,0,0,1,3.512,8.057,16.758,16.758,0,0,1-1.875,6.91,46,46,0,0,1-4.125,6.872,75.566,75.566,0,0,1-6,7.374Zm-2.205-16.774h0l3.732,1.063,4.269-1.37v-.548a1.625,1.625,0,0,0-1.6-1.645h-1.067a1.583,1.583,0,0,0-1-1.48l-3.286-1.261h-4.251v6.029h3.2v-.787Zm3.233-10.172a1.79,1.79,0,0,0-1.809,1.809c0,1.228,1.578,2.663,3.248,4.182l.041.038.041-.038c1.67-1.519,3.248-2.955,3.248-4.182a1.79,1.79,0,0,0-1.809-1.809,1.967,1.967,0,0,0-1.48.685A1.987,1.987,0,0,0-4092.972,5823.6Zm.484,10.09h0l-3.717-1.059v-3h.859l3.105,1.189a.491.491,0,0,1,.3.455h-.056a8.165,8.165,0,0,1-1.171-.081l-1.269-.433-.338,1.041,1.27.433a2.614,2.614,0,0,0,.844.143h2.853a.535.535,0,0,1,.48.307l-3.164,1.009Zm-4.783-.225h-1.068v-3.837h1.068v3.836Zm5.779-5.323h0c-1.02-.946-2.191-2.112-2.191-2.733a.7.7,0,0,1,.712-.713.882.882,0,0,1,.647.3l.833.982.833-.982a.881.881,0,0,1,.647-.3.7.7,0,0,1,.712.713c0,.614-1.108,1.727-2.191,2.733Z" transform="translate(4106 -5818)" fill="#ff2d64"/>
  <g id="volunteer_activism_black_24dp" transform="translate(6.152 4.315)">
    <g id="Gruppe_2023" data-name="Gruppe 2023" transform="translate(0 0)">
      <rect id="Rechteck_317" data-name="Rechteck 317" width="13.5" height="12.996" transform="translate(0 0)" fill="none"/>
    </g>
  </g>
</svg>
