<svg id="Marker-Web" xmlns="http://www.w3.org/2000/svg" width="24" height="32.548" viewBox="0 0 24 32.548">
  <path id="Ausschluss_9" data-name="Ausschluss 9" d="M-4094,6160.548h0a75.586,75.586,0,0,1-6-7.374,46.075,46.075,0,0,1-4.125-6.872,16.758,16.758,0,0,1-1.875-6.91,11.034,11.034,0,0,1,3.512-8.057A12.251,12.251,0,0,1-4094,6128a12.255,12.255,0,0,1,8.489,3.334,11.034,11.034,0,0,1,3.512,8.057,16.758,16.758,0,0,1-1.875,6.91,46.067,46.067,0,0,1-4.125,6.872,75.586,75.586,0,0,1-6,7.374Zm-.006-27.4a5.484,5.484,0,0,0-5.475,5.481,5.484,5.484,0,0,0,5.475,5.481,5.49,5.49,0,0,0,5.487-5.481A5.49,5.49,0,0,0-4094.006,6133.15Zm.006,9.844h0a7.692,7.692,0,0,1-1.046-2.169h2.094a7.688,7.688,0,0,1-1.046,2.169Zm1.419-.219v0a8.522,8.522,0,0,0,.755-1.949h1.617a4.394,4.394,0,0,1-2.371,1.95Zm-2.839,0h0a4.373,4.373,0,0,1-2.371-1.95h1.617a8.477,8.477,0,0,0,.755,1.949Zm5.662-3.047h-1.852a9.385,9.385,0,0,0,.076-1.1,9.349,9.349,0,0,0-.076-1.1h1.852a4.512,4.512,0,0,1,.142,1.1,4.5,4.5,0,0,1-.142,1.1Zm-2.959,0h-2.567a8.335,8.335,0,0,1-.086-1.1,8.358,8.358,0,0,1,.086-1.1h2.567a8.3,8.3,0,0,1,.086,1.1,8.4,8.4,0,0,1-.086,1.1Zm-3.674,0h-1.852a4.506,4.506,0,0,1-.142-1.1,4.539,4.539,0,0,1,.142-1.1h1.852a9.521,9.521,0,0,0-.076,1.1,9.433,9.433,0,0,0,.076,1.1Zm6.183-3.289h-1.617a8.542,8.542,0,0,0-.756-1.951,4.4,4.4,0,0,1,2.373,1.95Zm-2.746,0h-2.093a7.7,7.7,0,0,1,1.047-2.169,7.7,7.7,0,0,1,1.046,2.168Zm-3.222,0h-1.617a4.38,4.38,0,0,1,2.373-1.951,8.525,8.525,0,0,0-.756,1.951Z" transform="translate(4106 -6128)" fill="#ff2d64"/>
  <g id="language_black_24dp" transform="translate(5.422 4.054)">
    <path id="Pfad_562" data-name="Pfad 562" d="M0,0H13.154V13.154H0Z" fill="none"/>
  </g>
</svg>
