<svg xmlns="http://www.w3.org/2000/svg" width="39.819" height="54" viewBox="0 0 39.819 54">
  <g id="Gruppe_2113" data-name="Gruppe 2113" transform="translate(-2566 5243.726)">
    <g id="Gruppe_2095" data-name="Gruppe 2095" transform="translate(-250 223.726)">
      <path id="Differenzmenge_213" data-name="Differenzmenge 213" d="M19.909,0C8.9,0,0,8.451,0,18.9,0,33.075,19.909,54,19.909,54S39.819,33.075,39.819,18.9C39.819,8.451,30.916,0,19.909,0Z" transform="translate(2816 -5467.451)" fill="#ff2d64"/>
    </g>
    <g id="park_black_24dp" transform="translate(2574 -5237.726)">
      <g id="Gruppe_2083" data-name="Gruppe 2083">
        <rect id="Rechteck_323" data-name="Rechteck 323" width="24" height="24" fill="none"/>
      </g>
      <g id="Gruppe_2086" data-name="Gruppe 2086">
        <g id="Gruppe_2085" data-name="Gruppe 2085">
          <g id="Gruppe_2084" data-name="Gruppe 2084">
            <path id="Pfad_595" data-name="Pfad 595" d="M17,12h2L12,2,5.05,12H7L3.1,18h6.92v4h3.95V18H21ZM6.79,16l3.9-6H8.88l3.13-4.5L15.16,10h-1.9l4,6Z" fill="#fff"/>
          </g>
        </g>
      </g>
    </g>
  </g>
</svg>
