<svg id="Marker-Web" xmlns="http://www.w3.org/2000/svg" width="24" height="32.548" viewBox="0 0 24 32.548">
  <path id="Ausschluss_6" data-name="Ausschluss 6" d="M-4094,6072.548h0a75.542,75.542,0,0,1-6-7.374,45.972,45.972,0,0,1-4.125-6.872,16.758,16.758,0,0,1-1.875-6.91,11.034,11.034,0,0,1,3.513-8.058A12.254,12.254,0,0,1-4094,6040a12.255,12.255,0,0,1,8.488,3.334,11.036,11.036,0,0,1,3.512,8.058,16.758,16.758,0,0,1-1.875,6.91,46.016,46.016,0,0,1-4.125,6.872,75.566,75.566,0,0,1-6,7.374Zm-4.385-24.654a1.1,1.1,0,0,0-1.1,1.1v6.578a1.1,1.1,0,0,0,1.1,1.1h8.769a1.1,1.1,0,0,0,1.1-1.1v-6.578a1.1,1.1,0,0,0-1.1-1.1h-1.737l-1-1.1h-3.289l-1,1.1Zm8.769,7.673h-8.769v-6.578h2.221l1-1.1h2.324l1,1.1h2.219v6.577Zm-4.385-6.029a2.743,2.743,0,0,0-2.74,2.74,2.744,2.744,0,0,0,2.74,2.742,2.744,2.744,0,0,0,2.74-2.742A2.743,2.743,0,0,0-4094,6049.539Zm0,4.384a1.646,1.646,0,0,1-1.645-1.645,1.646,1.646,0,0,1,1.645-1.644,1.646,1.646,0,0,1,1.644,1.644A1.646,1.646,0,0,1-4094,6053.923Z" transform="translate(4106 -6040)" fill="#ff2d64"/>
  <g id="photo_camera_black_24dp" transform="translate(5.423 5.702)">
    <path id="Pfad_548" data-name="Pfad 548" d="M0,0H13.154V13.154H0Z" fill="none"/>
  </g>
</svg>
