<svg id="Marker-Web" xmlns="http://www.w3.org/2000/svg" width="24" height="32.549" viewBox="0 0 24 32.549">
  <path id="Ausschluss_8" data-name="Ausschluss 8" d="M-4095,5758.548h0a75.614,75.614,0,0,1-6-7.373,46.064,46.064,0,0,1-4.125-6.872,16.758,16.758,0,0,1-1.875-6.91,11.037,11.037,0,0,1,3.513-8.058A12.253,12.253,0,0,1-4095,5726a12.252,12.252,0,0,1,8.487,3.334,11.038,11.038,0,0,1,3.512,8.058,16.763,16.763,0,0,1-1.875,6.91,46.1,46.1,0,0,1-4.125,6.872,75.572,75.572,0,0,1-6,7.373Zm-2.468-26.624a.988.988,0,0,0-.986.987v8.882a.988.988,0,0,0,.986.987h4.935a.988.988,0,0,0,.987-.987v-8.882a.986.986,0,0,0-.987-.983Zm4.935,8.882h-4.935V5733.9h4.935v6.907Z" transform="translate(4107 -5725.999)" fill="#ff2d64"/>
  <g id="smartphone_black_24dp" transform="translate(6.079 5.432)">
    <path id="Pfad_571" data-name="Pfad 571" d="M0,0H11.843V11.843H0Z" fill="none"/>
  </g>
</svg>
