<svg xmlns="http://www.w3.org/2000/svg" width="39.819" height="54" viewBox="0 0 39.819 54">
  <g id="Gruppe_2115" data-name="Gruppe 2115" transform="translate(-2566 5099.177)">
    <g id="Gruppe_2099" data-name="Gruppe 2099" transform="translate(-250 368.274)">
      <path id="Differenzmenge_213" data-name="Differenzmenge 213" d="M19.909,0C8.9,0,0,8.451,0,18.9,0,33.075,19.909,54,19.909,54S39.819,33.075,39.819,18.9C39.819,8.451,30.916,0,19.909,0Z" transform="translate(2816 -5467.451)" fill="#ff2d64"/>
    </g>
    <g id="smartphone_black_24dp" transform="translate(2574 -5091.726)">
      <path id="Pfad_598" data-name="Pfad 598" d="M0,0H24V24H0Z" fill="none"/>
      <path id="Pfad_599" data-name="Pfad 599" d="M17,1.01,7,1A2.006,2.006,0,0,0,5,3V21a2.006,2.006,0,0,0,2,2H17a2.006,2.006,0,0,0,2-2V3A2,2,0,0,0,17,1.01ZM17,19H7V5H17Z" fill="#fff"/>
    </g>
  </g>
</svg>
