<svg xmlns="http://www.w3.org/2000/svg" width="39.819" height="54" viewBox="0 0 39.819 54">
  <g id="Gruppe_2120" data-name="Gruppe 2120" transform="translate(-2346 4953.726)">
    <g id="Gruppe_2105" data-name="Gruppe 2105" transform="translate(-470 513.726)">
      <path id="Differenzmenge_213" data-name="Differenzmenge 213" d="M19.909,0C8.9,0,0,8.451,0,18.9,0,33.075,19.909,54,19.909,54S39.819,33.075,39.819,18.9C39.819,8.451,30.916,0,19.909,0Z" transform="translate(2816 -5467.451)" fill="#233787"/>
    </g>
    <g id="trending_up_black_24dp" transform="translate(2354 -4947.726)">
      <path id="Pfad_602" data-name="Pfad 602" d="M0,0H24V24H0Z" fill="none"/>
      <path id="Pfad_603" data-name="Pfad 603" d="M16,6l2.29,2.29-4.88,4.88-4-4L2,16.59,3.41,18l6-6,4,4,6.3-6.29L22,12V6Z" fill="#fff"/>
    </g>
  </g>
</svg>
