<svg xmlns="http://www.w3.org/2000/svg" width="39.819" height="54" viewBox="0 0 39.819 54">
  <g id="Gruppe_2125" data-name="Gruppe 2125" transform="translate(-2346 5313.726)">
    <g id="Gruppe_2107" data-name="Gruppe 2107" transform="translate(-470 153.726)">
      <path id="Differenzmenge_213" data-name="Differenzmenge 213" d="M19.909,0C8.9,0,0,8.451,0,18.9,0,33.075,19.909,54,19.909,54S39.819,33.075,39.819,18.9C39.819,8.451,30.916,0,19.909,0Z" transform="translate(2816 -5467.451)" fill="#233787"/>
    </g>
    <g id="lightbulb_black_24dp" transform="translate(2354 -5307.726)">
      <path id="Pfad_591" data-name="Pfad 591" d="M0,0H24V24H0Z" fill="none"/>
      <path id="Pfad_592" data-name="Pfad 592" d="M9,21a1,1,0,0,0,1,1h4a1,1,0,0,0,1-1V20H9ZM12,2A7,7,0,0,0,8,14.74V17a1,1,0,0,0,1,1h6a1,1,0,0,0,1-1V14.74A7,7,0,0,0,12,2Zm2.85,11.1-.85.6V16H10V13.7l-.85-.6a5,5,0,1,1,5.7,0Z" fill="#fff"/>
    </g>
  </g>
</svg>
