<svg xmlns="http://www.w3.org/2000/svg" width="39.819" height="54" viewBox="0 0 39.819 54">
  <g id="Gruppe_2123" data-name="Gruppe 2123" transform="translate(-2346 5169.177)">
    <g id="Gruppe_2104" data-name="Gruppe 2104" transform="translate(-470 298.274)">
      <path id="Differenzmenge_213" data-name="Differenzmenge 213" d="M19.909,0C8.9,0,0,8.451,0,18.9,0,33.075,19.909,54,19.909,54S39.819,33.075,39.819,18.9C39.819,8.451,30.916,0,19.909,0Z" transform="translate(2816 -5467.451)" fill="#233787"/>
    </g>
    <g id="photo_camera_black_24dp" transform="translate(2354 -5162.726)">
      <path id="Pfad_596" data-name="Pfad 596" d="M0,0H24V24H0Z" fill="none"/>
      <path id="Pfad_597" data-name="Pfad 597" d="M14.12,4l1.83,2H20V18H4V6H8.05L9.88,4h4.24M15,2H9L7.17,4H4A2.006,2.006,0,0,0,2,6V18a2.006,2.006,0,0,0,2,2H20a2.006,2.006,0,0,0,2-2V6a2.006,2.006,0,0,0-2-2H16.83ZM12,9a3,3,0,1,1-3,3,3.009,3.009,0,0,1,3-3m0-2a5,5,0,1,0,5,5A5,5,0,0,0,12,7Z" fill="#fff"/>
    </g>
  </g>
</svg>
