<svg id="Marker-Web" xmlns="http://www.w3.org/2000/svg" width="24" height="32.548" viewBox="0 0 24 32.548">
  <path id="Ausschluss_4" data-name="Ausschluss 4" d="M-4094,5984.548h0a75.63,75.63,0,0,1-6-7.374,46,46,0,0,1-4.125-6.872,16.758,16.758,0,0,1-1.875-6.91,11.035,11.035,0,0,1,3.513-8.058A12.253,12.253,0,0,1-4094,5952a12.256,12.256,0,0,1,8.488,3.334,11.038,11.038,0,0,1,3.512,8.058,16.758,16.758,0,0,1-1.875,6.91,46.017,46.017,0,0,1-4.125,6.872,75.566,75.566,0,0,1-6,7.374Zm-1.645-16.575v.548a.549.549,0,0,0,.548.548h2.193a.549.549,0,0,0,.548-.548v-.548Zm1.645-9.866a3.842,3.842,0,0,0-3.838,3.838,3.857,3.857,0,0,0,1.645,3.146v1.239a.548.548,0,0,0,.548.547h3.289a.547.547,0,0,0,.547-.547v-1.239a3.853,3.853,0,0,0,1.645-3.146A3.841,3.841,0,0,0-4094,5958.106Zm1.1,7.673h-2.193v-1.26l-.466-.329a2.741,2.741,0,0,1-1.179-2.247A2.744,2.744,0,0,1-4094,5959.2a2.743,2.743,0,0,1,2.74,2.741,2.743,2.743,0,0,1-1.177,2.247l-.466.329v1.259Z" transform="translate(4106 -5952)" fill="#233787"/>
  <g id="lightbulb_black_24dp" transform="translate(5.423 5.011)">
    <path id="Pfad_552" data-name="Pfad 552" d="M0,0H13.154V13.154H0Z" fill="none"/>
  </g>
</svg>
