<svg id="Marker-Web" xmlns="http://www.w3.org/2000/svg" width="24" height="32.548" viewBox="0 0 24 32.548">
  <path id="Ausschluss_3" data-name="Ausschluss 3" d="M-4094,5938.548h0a75.625,75.625,0,0,1-6-7.373,46.106,46.106,0,0,1-4.125-6.872,16.768,16.768,0,0,1-1.875-6.91,11.037,11.037,0,0,1,3.512-8.058A12.249,12.249,0,0,1-4094,5906a12.254,12.254,0,0,1,8.489,3.334,11.036,11.036,0,0,1,3.512,8.058,16.758,16.758,0,0,1-1.875,6.91,46.056,46.056,0,0,1-4.125,6.872,75.6,75.6,0,0,1-6,7.373Zm-4.933-24.545v7.672h9.866v-5.48h-3.288v-3.29l-1.646-1.644-1.644,1.644v1.1Zm8.769,6.577h-1.1v-1.1h1.1v1.1Zm-3.288,0h-1.1v-1.1h1.1v1.1Zm-3.29,0h-1.1v-1.1h1.1v1.1Zm6.577-2.192h-1.1v-1.1h1.1v1.1Zm-3.288,0h-1.1v-1.1h1.1v1.1Zm-3.29,0h-1.1v-1.1h1.1v1.1Zm3.29-2.192h-1.1v-1.1h1.1v1.1Zm-3.29,0h-1.1v-1.1h1.1v1.1Zm3.29-2.192h-1.1v-1.1h1.1v1.1Z" transform="translate(4106 -5906)" fill="#233787"/>
  <g id="location_city_black_24dp" transform="translate(5.422 4.166)">
    <path id="Pfad_557" data-name="Pfad 557" d="M0,0H13.154V13.154H0Z" fill="none"/>
  </g>
</svg>
