<svg xmlns="http://www.w3.org/2000/svg" width="39.819" height="54" viewBox="0 0 39.819 54">
  <g id="Gruppe_2121" data-name="Gruppe 2121" transform="translate(-2346 5028.726)">
    <g id="Gruppe_2103" data-name="Gruppe 2103" transform="translate(-470 438.726)">
      <path id="Differenzmenge_213" data-name="Differenzmenge 213" d="M19.909,0C8.9,0,0,8.451,0,18.9,0,33.075,19.909,54,19.909,54S39.819,33.075,39.819,18.9C39.819,8.451,30.916,0,19.909,0Z" transform="translate(2816 -5467.451)" fill="#233787"/>
    </g>
    <g id="traffic_black_24dp" transform="translate(2354 -5023.726)">
      <path id="Pfad_600" data-name="Pfad 600" d="M0,0H24V24H0Z" fill="none"/>
      <path id="Pfad_601" data-name="Pfad 601" d="M20,10H17V8.86A4,4,0,0,0,20,5H17V4a1,1,0,0,0-1-1H8A1,1,0,0,0,7,4V5H4A4,4,0,0,0,7,8.86V10H4a4,4,0,0,0,3,3.86V15H4a4,4,0,0,0,3,3.86V20a1,1,0,0,0,1,1h8a1,1,0,0,0,1-1V18.86A4,4,0,0,0,20,15H17V13.86A4,4,0,0,0,20,10Zm-5,9H9V5h6Zm-3-1a1.5,1.5,0,1,0-1.5-1.5A1.5,1.5,0,0,0,12,18Zm0-4.5A1.5,1.5,0,1,0,10.5,12,1.5,1.5,0,0,0,12,13.5ZM12,9a1.5,1.5,0,1,0-1.5-1.5A1.5,1.5,0,0,0,12,9Z" fill="#fff"/>
    </g>
  </g>
</svg>
