<svg id="Marker-Web" xmlns="http://www.w3.org/2000/svg" width="23.999" height="32.547" viewBox="0 0 23.999 32.547">
  <path id="Ausschluss_2" data-name="Ausschluss 2" d="M-4094,5896.548h0a75.578,75.578,0,0,1-6-7.373,46.106,46.106,0,0,1-4.125-6.872,16.768,16.768,0,0,1-1.875-6.91,11.035,11.035,0,0,1,3.512-8.058A12.253,12.253,0,0,1-4094,5864a12.254,12.254,0,0,1,8.488,3.334,11.035,11.035,0,0,1,3.512,8.058,16.758,16.758,0,0,1-1.875,6.91,46.016,46.016,0,0,1-4.125,6.872,75.594,75.594,0,0,1-6,7.373Zm-.648-17.441v2.192h2.165v-2.192h3.854l-2.193-3.288h1.1l-3.837-5.481-3.807,5.481h1.068l-2.139,3.288Zm3.969-1.1h-5.739l2.137-3.289h-.991l1.715-2.467,1.727,2.467h-1.042l2.192,3.287Z" transform="translate(4106 -5864)" fill="#233787"/>
  <g id="park_black_24dp" transform="translate(5 5.319)">
    <g id="Gruppe_2019" data-name="Gruppe 2019" transform="translate(0 0)">
      <rect id="Rechteck_316" data-name="Rechteck 316" width="14" height="12.996" fill="none"/>
    </g>
  </g>
</svg>
