<svg xmlns="http://www.w3.org/2000/svg" width="39.819" height="54" viewBox="0 0 39.819 54">
  <g id="Gruppe_2126" data-name="Gruppe 2126" transform="translate(-2349 5377.177)">
    <g id="Gruppe_2108" data-name="Gruppe 2108" transform="translate(-467 90.274)">
      <path id="Differenzmenge_213" data-name="Differenzmenge 213" d="M19.909,0C8.9,0,0,8.451,0,18.9,0,33.075,19.909,54,19.909,54S39.819,33.075,39.819,18.9C39.819,8.451,30.916,0,19.909,0Z" transform="translate(2816 -5467.451)" fill="#233787"/>
    </g>
    <g id="location_city_black_24dp" transform="translate(2357 -5371.726)">
      <path id="Pfad_593" data-name="Pfad 593" d="M0,0H24V24H0Z" fill="none"/>
      <path id="Pfad_594" data-name="Pfad 594" d="M15,11V5L12,2,9,5V7H3V21H21V11ZM7,19H5V17H7Zm0-4H5V13H7Zm0-4H5V9H7Zm6,8H11V17h2Zm0-4H11V13h2Zm0-4H11V9h2Zm0-4H11V5h2Zm6,12H17V17h2Zm0-4H17V13h2Z" fill="#fff"/>
    </g>
  </g>
</svg>
