<svg id="Marker-Web" xmlns="http://www.w3.org/2000/svg" width="24" height="32.547" viewBox="0 0 24 32.547">
  <path id="Ausschluss_5" data-name="Ausschluss 5" d="M-4094,6030.548h0a75.534,75.534,0,0,1-6-7.373,46,46,0,0,1-4.125-6.872,16.758,16.758,0,0,1-1.875-6.911,11.032,11.032,0,0,1,3.512-8.057A12.252,12.252,0,0,1-4094,5998a12.254,12.254,0,0,1,8.488,3.334,11.032,11.032,0,0,1,3.512,8.057,16.758,16.758,0,0,1-1.875,6.911,46,46,0,0,1-4.125,6.872,75.6,75.6,0,0,1-6,7.373Zm-4.384-18.47a2.194,2.194,0,0,0,1.644,2.116v.625a.548.548,0,0,0,.548.548h4.386a.548.548,0,0,0,.548-.548v-.625a2.194,2.194,0,0,0,1.644-2.116h-1.644v-.624a2.193,2.193,0,0,0,1.644-2.116h-1.644v-.625a2.193,2.193,0,0,0,1.644-2.116h-1.644v-.548a.548.548,0,0,0-.548-.548h-4.386a.548.548,0,0,0-.548.548v.548h-1.644a2.193,2.193,0,0,0,1.644,2.116v.625h-1.644a2.193,2.193,0,0,0,1.644,2.116v.624Zm6.028,2.193h-3.287V6006.6h3.287v7.672Zm-1.644-2.193a.823.823,0,0,0-.822.823.823.823,0,0,0,.822.822.823.823,0,0,0,.822-.822A.823.823,0,0,0-4094,6012.078Zm0-2.466a.823.823,0,0,0-.822.822.823.823,0,0,0,.822.822.823.823,0,0,0,.822-.822A.823.823,0,0,0-4094,6009.612Zm0-2.467a.823.823,0,0,0-.822.822.823.823,0,0,0,.822.823.823.823,0,0,0,.822-.823A.823.823,0,0,0-4094,6007.145Z" transform="translate(4106 -5998)" fill="#233787"/>
  <g id="traffic_black_24dp" transform="translate(5.423 5.856)">
    <path id="Pfad_550" data-name="Pfad 550" d="M0,0H13.154V13.154H0Z" fill="none"/>
  </g>
</svg>
