<svg xmlns="http://www.w3.org/2000/svg" width="10.963" height="10.964" viewBox="0 0 10.963 10.964">
  <path id="Ausschluss_11" data-name="Ausschluss 11" d="M10.659,5.183a5.482,5.482,0,1,0,5.487,5.482A5.479,5.479,0,0,0,10.659,5.183Zm3.8,3.289H12.841a8.579,8.579,0,0,0-.756-1.952A4.4,4.4,0,0,1,14.458,8.472ZM10.665,6.3a7.722,7.722,0,0,1,1.047,2.171H9.618A7.722,7.722,0,0,1,10.665,6.3Zm-4.243,5.46a4.288,4.288,0,0,1,0-2.193H8.275a9.054,9.054,0,0,0-.077,1.1,9.054,9.054,0,0,0,.077,1.1Zm.45,1.1H8.489a8.579,8.579,0,0,0,.756,1.952A4.378,4.378,0,0,1,6.871,12.858ZM8.489,8.472H6.871A4.378,4.378,0,0,1,9.245,6.521,8.579,8.579,0,0,0,8.489,8.472Zm2.176,6.556a7.722,7.722,0,0,1-1.047-2.171h2.094A7.722,7.722,0,0,1,10.665,15.029Zm1.283-3.267H9.382a8.066,8.066,0,0,1-.088-1.1,8,8,0,0,1,.088-1.1h2.565a8,8,0,0,1,.088,1.1A8.065,8.065,0,0,1,11.948,11.761Zm.137,3.048a8.579,8.579,0,0,0,.756-1.952h1.617A4.4,4.4,0,0,1,12.085,14.809Zm.97-3.048a9.054,9.054,0,0,0,.077-1.1,9.054,9.054,0,0,0-.077-1.1h1.853a4.288,4.288,0,0,1,0,2.193Z" transform="translate(-5.183 -5.183)" fill="#c3c3c4"/>
</svg>
