<svg xmlns="http://www.w3.org/2000/svg" width="12.99" height="11.891" viewBox="0 0 12.99 11.891">
  <path id="Ausschluss_13" data-name="Ausschluss 13" d="M8.672,1.321,9.861,2.643h2.631V10.57H2.1V2.643H4.729L5.918,1.321H8.672M9.243,0h-3.9L4.158,1.321H2.1A1.314,1.314,0,0,0,.8,2.643V10.57a1.314,1.314,0,0,0,1.3,1.321H12.491a1.314,1.314,0,0,0,1.3-1.321V2.643a1.314,1.314,0,0,0-1.3-1.321H10.432ZM7.295,4.624A1.982,1.982,0,1,1,5.346,6.606,1.971,1.971,0,0,1,7.295,4.624m0-1.321a3.3,3.3,0,1,0,3.248,3.3A3.277,3.277,0,0,0,7.295,3.3Z" transform="translate(-0.8)" fill="#c3c3c4"/>
</svg>
