<svg xmlns="http://www.w3.org/2000/svg" width="13.675" height="14.321" viewBox="0 0 13.675 14.321">
  <path id="Ausschluss_15" data-name="Ausschluss 15" d="M8.81,5.462V.94L6.531-1.321,4.252.94V2.448H-.307V13H13.368V5.462Zm-6.078,6.03H1.213V9.985H2.732Zm0-3.015H1.213V6.97H2.732Zm0-3.015H1.213V3.955H2.732Zm4.558,6.03H5.771V9.985H7.29Zm0-3.015H5.771V6.97H7.29Zm0-3.015H5.771V3.955H7.29Zm0-3.015H5.771V.94H7.29Zm4.558,9.045H10.329V9.985h1.519Zm0-3.015H10.329V6.97h1.519Z" transform="translate(0.307 1.321)" fill="#c3c3c4"/>
</svg>
