<svg xmlns="http://www.w3.org/2000/svg" width="14.222" height="16" viewBox="0 0 14.222 16">
  <path id="Ausschluss_14" data-name="Ausschluss 14" d="M14.222,4.222H11.555V3.209A3.555,3.555,0,0,0,14.222-.222H11.555v-.889A.891.891,0,0,0,10.666-2H3.555a.891.891,0,0,0-.889.889v.889H0A3.555,3.555,0,0,0,2.667,3.209V4.222H0A3.555,3.555,0,0,0,2.667,7.653V8.667H0A3.555,3.555,0,0,0,2.667,12.1v1.013A.891.891,0,0,0,3.555,14h7.111a.891.891,0,0,0,.889-.889V12.1a3.555,3.555,0,0,0,2.667-3.431H11.555V7.653a3.555,3.555,0,0,0,2.667-3.431Zm-4.444,8H4.444V-.222H9.778Zm-2.667-.889A1.333,1.333,0,1,0,5.778,10,1.332,1.332,0,0,0,7.111,11.333Zm0-4A1.333,1.333,0,1,0,5.778,6,1.332,1.332,0,0,0,7.111,7.333Zm0-4A1.333,1.333,0,1,0,5.778,2,1.332,1.332,0,0,0,7.111,3.333Z" transform="translate(0 2)" fill="#c3c3c4"/>
</svg>
