<svg xmlns="http://www.w3.org/2000/svg" width="51.073" height="51.072" viewBox="0 0 51.073 51.072">
  <path id="Icon_awesome-stamp" data-name="Icon awesome-stamp" d="M3.192,51.073H47.881V44.689H3.192ZM41.5,25.536H34.857A2.937,2.937,0,0,1,31.921,22.6v-.944A16.946,16.946,0,0,1,34.061,13.9a9.456,9.456,0,0,0,.9-6.027,9.578,9.578,0,0,0-19,1.7,9.37,9.37,0,0,0,.867,3.948,21.722,21.722,0,0,1,2.325,9.068V22.6a2.937,2.937,0,0,1-2.937,2.937H9.576A9.576,9.576,0,0,0,0,35.112V38.3A3.192,3.192,0,0,0,3.192,41.5H47.881A3.192,3.192,0,0,0,51.073,38.3V35.112A9.576,9.576,0,0,0,41.5,25.536Z" transform="translate(0 0)" fill="#233787"/>
</svg>
