<svg xmlns="http://www.w3.org/2000/svg" width="29.176" height="40.878" viewBox="0 0 29.176 40.878">
  <path id="Icon_awesome-euro-sign" data-name="Icon awesome-euro-sign" d="M28.35,37.084a1.094,1.094,0,0,0-1.316-.855,19.17,19.17,0,0,1-4.145.494,11.747,11.747,0,0,1-11.083-7.8H22.18a1.1,1.1,0,0,0,1.068-.855l.582-2.588a1.1,1.1,0,0,0-1.068-1.335H10.513a19.7,19.7,0,0,1,.013-3.855H23.9a1.1,1.1,0,0,0,1.07-.861l.594-2.715a1.1,1.1,0,0,0-1.07-1.329H11.879A11.46,11.46,0,0,1,22.611,8.543a17.872,17.872,0,0,1,3.454.378,1.1,1.1,0,0,0,1.278-.787l1.094-4.048a1.094,1.094,0,0,0-.851-1.361,26.572,26.572,0,0,0-4.807-.475A19.5,19.5,0,0,0,4.113,15.389H1.095A1.1,1.1,0,0,0,0,16.484V19.2a1.1,1.1,0,0,0,1.095,1.095H3.063a27.087,27.087,0,0,0-.017,3.855H1.095A1.1,1.1,0,0,0,0,25.244v2.588a1.1,1.1,0,0,0,1.095,1.095H3.843a19.114,19.114,0,0,0,18.935,14.2,22.759,22.759,0,0,0,5.575-.711,1.1,1.1,0,0,0,.8-1.274l-.8-4.06Z" transform="translate(0 -2.25)" fill="#ff2d64"/>
</svg>
