<svg xmlns="http://www.w3.org/2000/svg" width="71.264" height="45.35" viewBox="0 0 71.264 45.35">
  <path id="Icon_material-group" data-name="Icon material-group" d="M50.089,26.936a9.718,9.718,0,1,0-9.718-9.718A9.677,9.677,0,0,0,50.089,26.936Zm-25.914,0a9.718,9.718,0,1,0-9.718-9.718A9.677,9.677,0,0,0,24.175,26.936Zm0,6.479C16.627,33.414,1.5,37.2,1.5,44.752v8.1H46.85v-8.1C46.85,37.2,31.723,33.414,24.175,33.414Zm25.914,0c-.939,0-2.008.065-3.142.162,3.758,2.721,6.381,6.381,6.381,11.176v8.1H72.764v-8.1C72.764,37.2,57.637,33.414,50.089,33.414Z" transform="translate(-1.5 -7.5)" fill="#233787"/>
</svg>
